@startuml Command Structure
skinparam ClassAttributeIconSize 0

class Client

class Invoker {
  - command
  + setCommand(command)
  + executeCommand()
}

interface Command <<interface>> {
  + execute()
}

class ConcreteCommand1 implements Command {
  - receiver
  - params
  + Command1(receiver, params)
  + execute()
}

class ConcreteCommand2 implements Command {
  + execute()
}

class Receiver {
  + operation(a, b, c)
}

Client --> Receiver
Invoker -> Command
Client ..> ConcreteCommand1

@enduml