@startuml Class hierarchies
skinparam ClassAttributeIconSize 0
class Animal {
  + name
  + age
  + sex
  + weight
  + color
  + breath()
  + eat(food)
  + run(destination)
  + sleep(hours)
}

class Cat {
  - isNasty: bool
  + meow()
}

class Dog {
  - bestFriend: Human
  + bark()
}

Animal <|-- Cat
Animal <|-- Dog
@enduml